<?xml version="1.0" standalone="no"?>
<!DOCTYPE svg PUBLIC "-//W3C//DTD SVG 20010904//EN"
 "http://www.w3.org/TR/2001/REC-SVG-20010904/DTD/svg10.dtd">
<svg version="1.0" xmlns="http://www.w3.org/2000/svg"
 width="1000.000000pt" height="1000.000000pt" viewBox="0 0 1000.000000 1000.000000"
 preserveAspectRatio="xMidYMid meet">
<metadata>
Created by potrace 1.11, written by Peter Selinger 2001-2013
</metadata>
<g transform="translate(0.000000,1000.000000) scale(0.100000,-0.100000)"
fill="#000000" stroke="none">
<path d="M4650 9803 c-1398 -105 -2661 -799 -3510 -1928 -450 -599 -759 -1323
-885 -2075 -51 -302 -59 -422 -59 -800 0 -380 8 -497 60 -805 197 -1178 824
-2232 1779 -2989 333 -264 775 -518 1180 -679 147 -58 407 -147 431 -147 11 0
14 20 14 96 l0 95 38 -3 37 -3 3 -107 3 -107 37 -11 c65 -18 62 -27 62 180 l0
190 400 0 400 0 0 390 0 390 388 0 c288 0 391 3 400 12 9 9 12 107 12 380 l0
368 368 0 c273 0 371 3 380 12 9 9 12 107 12 380 l0 368 370 0 370 0 0 330 0
330 328 0 c242 0 331 3 340 12 9 9 12 112 12 400 l0 388 390 0 390 0 0 400 0
400 400 0 400 0 0 380 0 380 250 0 c138 0 250 2 250 5 0 2 -5 26 -11 53 l-10
49 -106 7 c-58 3 -144 6 -190 6 l-83 0 0 41 0 42 175 -5 c148 -3 175 -2 175
10 0 8 -16 69 -36 136 -286 958 -850 1785 -1649 2420 -140 111 -443 314 -605
404 -617 343 -1271 543 -1975 602 -109 9 -627 11 -735 3z m-1360 -1318 l0
-185 -171 0 c-200 0 -238 -8 -292 -64 -49 -50 -73 -97 -99 -194 -21 -74 -22
-104 -28 -807 -7 -767 -7 -755 -53 -881 -71 -194 -210 -356 -377 -438 l-91
-44 56 -18 c199 -62 365 -260 437 -519 21 -78 22 -99 28 -810 6 -616 9 -740
23 -797 35 -149 110 -246 206 -267 29 -6 122 -11 207 -11 l154 0 -2 -182 -3
-183 -250 1 c-209 0 -260 3 -310 18 -199 59 -361 212 -449 424 -58 139 -58
138 -65 902 -7 684 -8 707 -29 784 -28 101 -80 206 -135 277 -75 94 -209 169
-304 169 l-33 0 0 209 0 208 52 7 c182 24 337 189 415 441 l27 90 6 710 c6
691 7 712 28 790 63 227 195 401 374 491 111 56 154 62 431 63 l247 1 0 -185z
m2498 170 c236 -56 426 -260 504 -540 21 -78 22 -98 28 -790 6 -692 7 -712 28
-789 55 -198 161 -345 296 -411 39 -20 95 -38 124 -42 l52 -6 -2 -206 -3 -206
-47 -7 c-187 -26 -350 -204 -421 -457 -20 -73 -21 -106 -27 -781 -7 -675 -8
-708 -28 -781 -74 -271 -252 -466 -487 -535 -49 -14 -103 -18 -295 -19 -129 0
-243 1 -252 3 -16 4 -18 21 -18 182 l0 178 188 4 c210 4 222 7 286 79 42 45
76 116 96 194 9 37 15 243 20 780 6 634 9 738 23 793 61 230 219 442 390 525
40 19 81 38 92 42 16 6 11 10 -30 25 -173 60 -300 181 -389 371 -81 170 -86
225 -86 971 0 386 -4 667 -10 715 -21 155 -76 270 -153 321 -40 27 -44 27
-234 30 l-193 4 0 184 0 184 243 0 c178 0 259 -4 305 -15z m-1910 -874 c115
-75 227 -203 296 -339 15 -29 42 -98 60 -153 34 -101 45 -106 46 -19 1 101 56
241 125 318 38 42 165 124 165 107 0 -4 -15 -25 -34 -48 -18 -23 -42 -55 -52
-72 -17 -27 -14 -26 41 17 114 88 202 118 344 118 99 0 146 -12 97 -24 -37 -9
-32 -26 7 -26 37 -1 46 8 -94 -90 -165 -115 -310 -268 -395 -414 l-28 -49 60
40 c188 128 379 167 546 114 37 -12 70 -26 73 -31 4 -6 -24 -10 -72 -11 -43 0
-98 -4 -123 -8 -40 -8 -36 -9 38 -10 251 -4 450 -107 567 -295 25 -40 45 -77
45 -81 0 -5 -15 5 -32 21 -68 63 -72 62 -37 -6 19 -36 35 -68 37 -72 2 -3 -42
11 -96 33 -231 90 -475 131 -732 120 l-55 -2 90 -23 c252 -66 421 -189 495
-361 l20 -47 -27 22 c-37 28 -101 70 -108 70 -2 0 10 -24 29 -52 62 -99 126
-252 126 -304 0 -8 -53 39 -117 104 -101 100 -243 223 -243 209 0 -2 14 -22
31 -43 17 -22 45 -66 61 -99 l31 -60 -72 68 c-150 141 -403 303 -613 390 l-36
15 -42 -129 c-22 -71 -38 -134 -35 -138 3 -5 -18 -94 -46 -198 -28 -103 -51
-201 -51 -217 1 -17 -14 -102 -33 -191 -19 -89 -32 -171 -29 -182 3 -11 -6
-117 -21 -234 -24 -185 -28 -253 -29 -501 0 -165 3 -289 8 -291 8 -3 104 -741
105 -809 l1 -28 -100 0 -99 0 -6 33 c-3 17 -28 187 -55 377 -33 231 -45 347
-38 351 7 5 5 97 -6 299 -15 251 -15 294 -3 303 10 9 18 73 31 247 13 178 20
238 31 246 11 8 25 84 47 248 22 157 37 236 45 236 15 0 18 10 44 160 12 69
28 132 35 140 14 16 66 241 58 250 -5 5 -320 -310 -399 -400 l-48 -55 6 48 c4
27 16 70 27 95 20 47 20 47 -73 -48 -79 -81 -177 -196 -275 -325 l-23 -30 16
40 c64 157 75 188 72 192 -7 6 -76 -76 -98 -117 l-20 -35 6 65 c20 212 152
419 358 559 53 36 245 131 265 131 7 0 10 5 7 10 -8 13 -312 13 -424 0 -47 -5
-87 -8 -89 -6 -2 3 29 21 70 41 l73 37 -145 -7 c-80 -3 -181 -12 -225 -20 -44
-8 -98 -18 -120 -22 -44 -7 -45 -13 14 67 l24 32 -39 -20 c-22 -11 -60 -43
-85 -71 -29 -32 -55 -51 -69 -51 l-22 0 22 38 c89 151 211 244 380 288 68 18
233 24 325 11 115 -15 -95 33 -275 64 -74 13 -75 13 -35 20 67 13 259 10 337
-5 130 -25 236 -72 328 -145 55 -44 40 -20 -54 84 -125 139 -327 292 -527 399
-63 34 -77 46 -58 46 23 0 224 -33 274 -46 11 -2 -5 9 -35 25 -83 44 -185 71
-296 79 l-99 8 91 12 c196 26 403 6 530 -52 32 -15 58 -25 60 -23 2 1 -22 31
-52 65 -31 34 -51 62 -46 62 5 0 36 -18 70 -39z m5230 -2138 l2 -273 -82 0
c-46 0 -161 3 -255 7 l-173 6 0 40 0 40 213 -4 212 -4 3 233 2 233 38 -3 37
-3 3 -272z m-810 -810 l2 -273 -82 0 c-46 0 -161 3 -255 7 l-173 6 0 40 0 40
213 -4 212 -4 3 233 2 233 38 -3 37 -3 3 -272z m-770 -800 l2 -273 -82 0 c-46
0 -161 3 -255 7 l-173 6 0 40 0 40 213 -4 212 -4 3 233 2 233 38 -3 37 -3 3
-272z m-660 -690 l2 -273 -82 0 c-46 0 -161 3 -255 7 l-173 6 0 40 0 40 213
-4 212 -4 3 233 2 233 38 -3 37 -3 3 -272z m-760 -730 l2 -273 -82 0 c-46 0
-161 3 -255 7 l-173 6 0 40 0 40 213 -4 212 -4 3 233 2 233 38 -3 37 -3 3
-272z m-780 -730 l2 -273 -82 0 c-46 0 -161 3 -255 7 l-173 6 0 40 0 40 213
-4 212 -4 3 233 2 233 38 -3 37 -3 3 -272z m-810 -810 l2 -273 -82 0 c-46 0
-161 3 -255 7 l-173 6 0 40 0 40 213 -4 212 -4 3 233 2 233 38 -3 37 -3 3
-272z"/>
<path d="M7186 2801 l-2599 -2599 94 -7 c52 -3 173 -7 269 -8 l175 -2 148 64
c81 35 147 67 147 71 0 4 -45 45 -100 90 -56 46 -97 87 -93 91 4 4 161 74 348
154 187 81 344 151 348 155 4 4 -44 51 -109 105 -82 69 -112 100 -103 105 8 4
163 72 344 150 182 78 334 146 338 150 5 4 -43 51 -107 105 -64 53 -116 100
-116 104 0 4 160 76 356 160 279 121 352 157 342 166 -7 6 -56 47 -108 90 -52
43 -98 81 -103 85 -4 3 157 78 358 165 201 87 368 156 371 153 4 -4 -166 -734
-179 -769 -1 -4 -69 49 -150 117 -82 68 -152 124 -155 124 -4 0 -47 -169 -96
-375 -49 -206 -91 -375 -94 -375 -2 0 -65 52 -140 115 -114 95 -138 112 -144
97 -4 -9 -44 -172 -88 -362 -45 -190 -83 -351 -86 -358 -2 -8 -61 35 -153 112
l-149 125 -42 -177 c-23 -97 -52 -219 -65 -271 l-24 -94 42 6 c23 3 88 16 143
28 l101 21 1790 1792 1790 1791 22 105 c49 234 84 501 97 738 4 70 3 122 -2
122 -5 0 -49 -171 -99 -380 -49 -209 -93 -379 -97 -377 -4 1 -68 53 -143 116
-75 62 -138 112 -140 110 -2 -3 -42 -166 -90 -364 -47 -198 -87 -364 -88 -369
-2 -4 -73 51 -159 123 -124 103 -158 127 -162 113 -3 -9 -41 -170 -86 -357
-44 -187 -82 -344 -83 -349 -2 -5 -72 50 -157 122 -125 105 -156 127 -162 114
-4 -10 -44 -174 -89 -367 -46 -192 -84 -352 -85 -353 -1 -2 -65 48 -141 112
-115 96 -139 113 -146 98 -4 -9 -45 -179 -92 -377 -47 -197 -87 -361 -90 -363
-4 -5 -545 448 -545 457 0 3 160 75 355 160 195 84 352 157 349 162 -3 5 -59
55 -125 110 l-121 102 79 34 c43 19 198 86 346 150 147 63 267 119 267 122 0
4 -43 42 -95 85 -52 43 -95 82 -95 86 0 4 153 74 340 155 187 81 340 148 340
149 0 1 -43 37 -95 80 -52 43 -95 82 -95 86 0 4 155 74 345 156 189 82 344
152 342 156 -1 4 -53 50 -114 102 -62 52 -110 97 -105 100 4 2 165 72 357 156
192 83 351 153 353 154 1 2 -47 45 -108 96 -60 51 -110 96 -110 100 0 4 57 31
126 61 l126 54 -6 74 c-3 41 -6 89 -6 108 0 18 -3 33 -8 33 -4 0 -1177 -1170
-2606 -2599z"/>
<path d="M8125 1870 c-737 -737 -1337 -1340 -1333 -1340 13 0 243 102 353 158
448 224 844 506 1204 857 389 380 662 743 914 1215 70 132 215 450 204 450 -1
0 -605 -603 -1342 -1340z"/>
<path d="M5431 256 c-6 -25 -11 -47 -11 -50 0 -5 113 5 120 11 5 4 -81 82 -91
83 -4 0 -12 -20 -18 -44z"/>
</g>
</svg>
