<svg id="visual" viewBox="0 0 960 300" width="960" height="300" xmlns="http://www.w3.org/2000/svg" xmlns:xlink="http://www.w3.org/1999/xlink" version="1.1"><rect x="0" y="0" width="960" height="300" fill="#373737"></rect><defs><linearGradient id="grad1_0" x1="68.8%" y1="100%" x2="100%" y2="0%"><stop offset="-14.000000000000007%" stop-color="#ffc700" stop-opacity="1"></stop><stop offset="114.00000000000001%" stop-color="#ffc700" stop-opacity="1"></stop></linearGradient></defs><defs><linearGradient id="grad1_1" x1="68.8%" y1="100%" x2="100%" y2="0%"><stop offset="-14.000000000000007%" stop-color="#ffc700" stop-opacity="1"></stop><stop offset="114.00000000000001%" stop-color="#373737" stop-opacity="1"></stop></linearGradient></defs><defs><linearGradient id="grad2_0" x1="0%" y1="100%" x2="31.3%" y2="0%"><stop offset="-14.000000000000007%" stop-color="#ffc700" stop-opacity="1"></stop><stop offset="114.00000000000001%" stop-color="#ffc700" stop-opacity="1"></stop></linearGradient></defs><defs><linearGradient id="grad2_1" x1="0%" y1="100%" x2="31.3%" y2="0%"><stop offset="-14.000000000000007%" stop-color="#373737" stop-opacity="1"></stop><stop offset="114.00000000000001%" stop-color="#ffc700" stop-opacity="1"></stop></linearGradient></defs><g transform="translate(960, 300)"><path d="M-210 0C-204.9 -37.5 -199.9 -74.9 -181.9 -105C-163.9 -135.1 -133 -157.8 -100.5 -174.1C-68 -190.3 -34 -200.2 0 -210L0 0Z" fill="#987b34"></path><path d="M-105 0C-102.5 -18.7 -99.9 -37.5 -90.9 -52.5C-81.9 -67.5 -66.5 -78.9 -50.3 -87C-34 -95.2 -17 -100.1 0 -105L0 0Z" fill="#ffc700"></path></g><g transform="translate(0, 0)"><path d="M210 0C202.5 35.4 195 70.7 178.4 103C161.8 135.3 136.2 164.5 105 181.9C73.8 199.2 36.9 204.6 0 210L0 0Z" fill="#987b34"></path><path d="M105 0C101.2 17.7 97.5 35.4 89.2 51.5C80.9 67.6 68.1 82.3 52.5 90.9C36.9 99.6 18.4 102.3 0 105L0 0Z" fill="#ffc700"></path></g></svg>