<svg id="visual" viewBox="0 0 960 300" width="960" height="300" xmlns="http://www.w3.org/2000/svg" xmlns:xlink="http://www.w3.org/1999/xlink" version="1.1"><path d="M0 40L80 40L160 43L240 49L320 40L400 49L480 34L560 52L640 52L720 46L800 43L880 49L960 40L960 0L880 0L800 0L720 0L640 0L560 0L480 0L400 0L320 0L240 0L160 0L80 0L0 0Z" fill="#ffc700"></path><path d="M0 85L80 82L160 70L240 76L320 70L400 85L480 76L560 91L640 79L720 70L800 76L880 85L960 73L960 38L880 47L800 41L720 44L640 50L560 50L480 32L400 47L320 38L240 47L160 41L80 38L0 38Z" fill="#cba029"></path><path d="M0 169L80 151L160 142L240 184L320 166L400 151L480 184L560 157L640 151L720 163L800 193L880 163L960 151L960 71L880 83L800 74L720 68L640 77L560 89L480 74L400 83L320 68L240 74L160 68L80 80L0 83Z" fill="#987b34"></path><path d="M0 235L80 238L160 262L240 247L320 235L400 259L480 256L560 247L640 232L720 241L800 259L880 259L960 262L960 149L880 161L800 191L720 161L640 149L560 155L480 182L400 149L320 164L240 182L160 140L80 149L0 167Z" fill="#675838"></path><path d="M0 301L80 301L160 301L240 301L320 301L400 301L480 301L560 301L640 301L720 301L800 301L880 301L960 301L960 260L880 257L800 257L720 239L640 230L560 245L480 254L400 257L320 233L240 245L160 260L80 236L0 233Z" fill="#373737"></path></svg>