<svg id="visual" viewBox="0 0 960 400" width="960" height="400" xmlns="http://www.w3.org/2000/svg" xmlns:xlink="http://www.w3.org/1999/xlink" version="1.1"><path d="M0 149L32 138.3C64 127.7 128 106.3 192 102.3C256 98.3 320 111.7 384 107.7C448 103.7 512 82.3 576 68.3C640 54.3 704 47.7 768 61.7C832 75.7 896 110.3 928 127.7L960 145L960 0L928 0C896 0 832 0 768 0C704 0 640 0 576 0C512 0 448 0 384 0C320 0 256 0 192 0C128 0 64 0 32 0L0 0Z" fill="#373737"></path><path d="M0 249L32 235.7C64 222.3 128 195.7 192 177C256 158.3 320 147.7 384 142.3C448 137 512 137 576 136.3C640 135.7 704 134.3 768 147.7C832 161 896 189 928 203L960 217L960 143L928 125.7C896 108.3 832 73.7 768 59.7C704 45.7 640 52.3 576 66.3C512 80.3 448 101.7 384 105.7C320 109.7 256 96.3 192 100.3C128 104.3 64 125.7 32 136.3L0 147Z" fill="#6e6e6e"></path><path d="M0 269L32 261C64 253 128 237 192 219.7C256 202.3 320 183.7 384 179.7C448 175.7 512 186.3 576 183C640 179.7 704 162.3 768 169.7C832 177 896 209 928 225L960 241L960 215L928 201C896 187 832 159 768 145.7C704 132.3 640 133.7 576 134.3C512 135 448 135 384 140.3C320 145.7 256 156.3 192 175C128 193.7 64 220.3 32 233.7L0 247Z" fill="#ababab"></path><path d="M0 305L32 295C64 285 128 265 192 251.7C256 238.3 320 231.7 384 234.3C448 237 512 249 576 239C640 229 704 197 768 200.3C832 203.7 896 242.3 928 261.7L960 281L960 239L928 223C896 207 832 175 768 167.7C704 160.3 640 177.7 576 181C512 184.3 448 173.7 384 177.7C320 181.7 256 200.3 192 217.7C128 235 64 251 32 259L0 267Z" fill="#c4c4c4"></path><path d="M0 329L32 321C64 313 128 297 192 288.3C256 279.7 320 278.3 384 284.3C448 290.3 512 303.7 576 289C640 274.3 704 231.7 768 235C832 238.3 896 287.7 928 312.3L960 337L960 279L928 259.7C896 240.3 832 201.7 768 198.3C704 195 640 227 576 237C512 247 448 235 384 232.3C320 229.7 256 236.3 192 249.7C128 263 64 283 32 293L0 303Z" fill="#ababab"></path><path d="M0 373L32 370.3C64 367.7 128 362.3 192 358.3C256 354.3 320 351.7 384 357.7C448 363.7 512 378.3 576 380.3C640 382.3 704 371.7 768 367.7C832 363.7 896 366.3 928 367.7L960 369L960 335L928 310.3C896 285.7 832 236.3 768 233C704 229.7 640 272.3 576 287C512 301.7 448 288.3 384 282.3C320 276.3 256 277.7 192 286.3C128 295 64 311 32 319L0 327Z" fill="#6e6e6e"></path><path d="M0 401L32 401C64 401 128 401 192 401C256 401 320 401 384 401C448 401 512 401 576 401C640 401 704 401 768 401C832 401 896 401 928 401L960 401L960 367L928 365.7C896 364.3 832 361.7 768 365.7C704 369.7 640 380.3 576 378.3C512 376.3 448 361.7 384 355.7C320 349.7 256 352.3 192 356.3C128 360.3 64 365.7 32 368.3L0 371Z" fill="#373737"></path></svg>