<svg id="visual" viewBox="0 0 960 300" width="960" height="300" xmlns="http://www.w3.org/2000/svg" xmlns:xlink="http://www.w3.org/1999/xlink" version="1.1"><path d="M0 28L32 27C64 26 128 24 192 29C256 34 320 46 384 58C448 70 512 82 576 75C640 68 704 42 768 39C832 36 896 56 928 66L960 76L960 0L928 0C896 0 832 0 768 0C704 0 640 0 576 0C512 0 448 0 384 0C320 0 256 0 192 0C128 0 64 0 32 0L0 0Z" fill="#373737"></path><path d="M0 70L32 65.5C64 61 128 52 192 58C256 64 320 85 384 97C448 109 512 112 576 99.5C640 87 704 59 768 58.5C832 58 896 85 928 98.5L960 112L960 74L928 64C896 54 832 34 768 37C704 40 640 66 576 73C512 80 448 68 384 56C320 44 256 32 192 27C128 22 64 24 32 25L0 26Z" fill="#848484"></path><path d="M0 79L32 77.5C64 76 128 73 192 82C256 91 320 112 384 121.5C448 131 512 129 576 118C640 107 704 87 768 88.5C832 90 896 113 928 124.5L960 136L960 110L928 96.5C896 83 832 56 768 56.5C704 57 640 85 576 97.5C512 110 448 107 384 95C320 83 256 62 192 56C128 50 64 59 32 63.5L0 68Z" fill="#dbdbdb"></path><path d="M0 109L32 105C64 101 128 93 192 98.5C256 104 320 123 384 131.5C448 140 512 138 576 131.5C640 125 704 114 768 117.5C832 121 896 139 928 148L960 157L960 134L928 122.5C896 111 832 88 768 86.5C704 85 640 105 576 116C512 127 448 129 384 119.5C320 110 256 89 192 80C128 71 64 74 32 75.5L0 77Z" fill="#ffffff"></path><path d="M0 154L32 160C64 166 128 178 192 183.5C256 189 320 188 384 194C448 200 512 213 576 224.5C640 236 704 246 768 238.5C832 231 896 206 928 193.5L960 181L960 155L928 146C896 137 832 119 768 115.5C704 112 640 123 576 129.5C512 136 448 138 384 129.5C320 121 256 102 192 96.5C128 91 64 99 32 103L0 107Z" fill="#dbdbdb"></path><path d="M0 274L32 276C64 278 128 282 192 282C256 282 320 278 384 277C448 276 512 278 576 279.5C640 281 704 282 768 281.5C832 281 896 279 928 278L960 277L960 179L928 191.5C896 204 832 229 768 236.5C704 244 640 234 576 222.5C512 211 448 198 384 192C320 186 256 187 192 181.5C128 176 64 164 32 158L0 152Z" fill="#848484"></path><path d="M0 301L32 301C64 301 128 301 192 301C256 301 320 301 384 301C448 301 512 301 576 301C640 301 704 301 768 301C832 301 896 301 928 301L960 301L960 275L928 276C896 277 832 279 768 279.5C704 280 640 279 576 277.5C512 276 448 274 384 275C320 276 256 280 192 280C128 280 64 276 32 274L0 272Z" fill="#373737"></path></svg>