<svg id="visual" viewBox="0 0 960 400" width="960" height="400" xmlns="http://www.w3.org/2000/svg" xmlns:xlink="http://www.w3.org/1999/xlink" version="1.1"><rect x="0" y="0" width="960" height="400" fill="#373737"></rect><defs><linearGradient id="grad1_0" x1="58.3%" y1="0%" x2="100%" y2="100%"><stop offset="2.0000000000000036%" stop-color="#ffc700" stop-opacity="1"></stop><stop offset="98%" stop-color="#ffc700" stop-opacity="1"></stop></linearGradient></defs><defs><linearGradient id="grad1_1" x1="58.3%" y1="0%" x2="100%" y2="100%"><stop offset="2.0000000000000036%" stop-color="#ffc700" stop-opacity="1"></stop><stop offset="98%" stop-color="#373737" stop-opacity="1"></stop></linearGradient></defs><defs><linearGradient id="grad2_0" x1="0%" y1="0%" x2="41.7%" y2="100%"><stop offset="2.0000000000000036%" stop-color="#ffc700" stop-opacity="1"></stop><stop offset="98%" stop-color="#ffc700" stop-opacity="1"></stop></linearGradient></defs><defs><linearGradient id="grad2_1" x1="0%" y1="0%" x2="41.7%" y2="100%"><stop offset="2.0000000000000036%" stop-color="#373737" stop-opacity="1"></stop><stop offset="98%" stop-color="#ffc700" stop-opacity="1"></stop></linearGradient></defs><g transform="translate(960, 0)"><path d="M0 280C-48 271.5 -96 263 -139 240.8C-182 218.5 -219.8 182.4 -242.5 140C-265.1 97.6 -272.6 48.8 -280 0L0 0Z" fill="#987b34"></path><path d="M0 140C-24 135.8 -48 131.5 -69.5 120.4C-91 109.2 -109.9 91.2 -121.2 70C-132.6 48.8 -136.3 24.4 -140 0L0 0Z" fill="#ffc700"></path></g><g transform="translate(0, 400)"><path d="M0 -280C46.4 -268.7 92.8 -257.5 136 -235.6C179.2 -213.6 219 -181 242.5 -140C265.9 -99 273 -49.5 280 0L0 0Z" fill="#987b34"></path><path d="M0 -140C23.2 -134.4 46.4 -128.7 68 -117.8C89.6 -106.8 109.5 -90.5 121.2 -70C133 -49.5 136.5 -24.7 140 0L0 0Z" fill="#ffc700"></path></g></svg>