<svg id="visual" viewBox="0 0 675 900" width="675" height="900" xmlns="http://www.w3.org/2000/svg" xmlns:xlink="http://www.w3.org/1999/xlink" version="1.1"><rect x="0" y="0" width="675" height="900" fill="#373737"></rect><defs><linearGradient id="grad1_0" x1="0%" y1="0%" x2="100%" y2="100%"><stop offset="30%" stop-color="#ffc700" stop-opacity="1"></stop><stop offset="70%" stop-color="#ffc700" stop-opacity="1"></stop></linearGradient></defs><defs><linearGradient id="grad1_1" x1="0%" y1="0%" x2="100%" y2="100%"><stop offset="30%" stop-color="#ffc700" stop-opacity="1"></stop><stop offset="70%" stop-color="#373737" stop-opacity="1"></stop></linearGradient></defs><defs><linearGradient id="grad2_0" x1="0%" y1="0%" x2="100%" y2="100%"><stop offset="30%" stop-color="#ffc700" stop-opacity="1"></stop><stop offset="70%" stop-color="#ffc700" stop-opacity="1"></stop></linearGradient></defs><defs><linearGradient id="grad2_1" x1="0%" y1="0%" x2="100%" y2="100%"><stop offset="30%" stop-color="#373737" stop-opacity="1"></stop><stop offset="70%" stop-color="#ffc700" stop-opacity="1"></stop></linearGradient></defs><g transform="translate(675, 0)"><path d="M0 393.8C-66.8 380.5 -133.5 367.2 -194 336C-254.5 304.9 -308.7 255.9 -341 196.9C-373.2 137.9 -383.5 68.9 -393.7 0L0 0Z" fill="#987b34"></path><path d="M0 196.9C-33.4 190.2 -66.8 183.6 -97 168C-127.2 152.4 -154.4 127.9 -170.5 98.4C-186.6 68.9 -191.7 34.5 -196.9 0L0 0Z" fill="#ffc700"></path></g><g transform="translate(0, 900)"><path d="M0 -393.7C68.6 -383.3 137.2 -372.8 196.9 -341C256.5 -309.1 307.3 -255.9 338.6 -195.5C369.9 -135.1 381.8 -67.6 393.8 0L0 0Z" fill="#987b34"></path><path d="M0 -196.9C34.3 -191.6 68.6 -186.4 98.4 -170.5C128.3 -154.6 153.6 -127.9 169.3 -97.8C185 -67.6 190.9 -33.8 196.9 0L0 0Z" fill="#ffc700"></path></g></svg>