<svg id="visual" viewBox="0 0 960 300" width="960" height="300" xmlns="http://www.w3.org/2000/svg" xmlns:xlink="http://www.w3.org/1999/xlink" version="1.1"><rect x="0" y="0" width="960" height="300" fill="#373737"></rect><path d="M0 145L22.8 145.3C45.7 145.7 91.3 146.3 137 148.3C182.7 150.3 228.3 153.7 274 156.5C319.7 159.3 365.3 161.7 411.2 162C457 162.3 503 160.7 548.8 160.7C594.7 160.7 640.3 162.3 686 157.3C731.7 152.3 777.3 140.7 823 137.2C868.7 133.7 914.3 138.3 937.2 140.7L960 143L960 0L937.2 0C914.3 0 868.7 0 823 0C777.3 0 731.7 0 686 0C640.3 0 594.7 0 548.8 0C503 0 457 0 411.2 0C365.3 0 319.7 0 274 0C228.3 0 182.7 0 137 0C91.3 0 45.7 0 22.8 0L0 0Z" fill="#282828"></path><path d="M0 115L22.8 116.7C45.7 118.3 91.3 121.7 137 119.8C182.7 118 228.3 111 274 105.5C319.7 100 365.3 96 411.2 96.5C457 97 503 102 548.8 104.7C594.7 107.3 640.3 107.7 686 107.3C731.7 107 777.3 106 823 103.5C868.7 101 914.3 97 937.2 95L960 93L960 0L937.2 0C914.3 0 868.7 0 823 0C777.3 0 731.7 0 686 0C640.3 0 594.7 0 548.8 0C503 0 457 0 411.2 0C365.3 0 319.7 0 274 0C228.3 0 182.7 0 137 0C91.3 0 45.7 0 22.8 0L0 0Z" fill="#6c582c"></path><path d="M0 71L22.8 73.8C45.7 76.7 91.3 82.3 137 85.2C182.7 88 228.3 88 274 85.8C319.7 83.7 365.3 79.3 411.2 76.2C457 73 503 71 548.8 71.7C594.7 72.3 640.3 75.7 686 80.7C731.7 85.7 777.3 92.3 823 88.7C868.7 85 914.3 71 937.2 64L960 57L960 0L937.2 0C914.3 0 868.7 0 823 0C777.3 0 731.7 0 686 0C640.3 0 594.7 0 548.8 0C503 0 457 0 411.2 0C365.3 0 319.7 0 274 0C228.3 0 182.7 0 137 0C91.3 0 45.7 0 22.8 0L0 0Z" fill="#b38d27"></path><path d="M0 26L22.8 30.3C45.7 34.7 91.3 43.3 137 42.3C182.7 41.3 228.3 30.7 274 30C319.7 29.3 365.3 38.7 411.2 42.7C457 46.7 503 45.3 548.8 45.5C594.7 45.7 640.3 47.3 686 47.5C731.7 47.7 777.3 46.3 823 43.7C868.7 41 914.3 37 937.2 35L960 33L960 0L937.2 0C914.3 0 868.7 0 823 0C777.3 0 731.7 0 686 0C640.3 0 594.7 0 548.8 0C503 0 457 0 411.2 0C365.3 0 319.7 0 274 0C228.3 0 182.7 0 137 0C91.3 0 45.7 0 22.8 0L0 0Z" fill="#ffc700"></path></svg>