<svg id="visual" viewBox="0 0 960 300" width="960" height="300" xmlns="http://www.w3.org/2000/svg" xmlns:xlink="http://www.w3.org/1999/xlink" version="1.1"><rect x="0" y="0" width="960" height="300" fill="#ffffff"></rect><path d="M0 100L137 93L274 110L411 104L549 80L686 112L823 110L960 95L960 301L823 301L686 301L549 301L411 301L274 301L137 301L0 301Z" fill="#feda69"></path><path d="M0 131L137 148L274 132L411 153L549 150L686 146L823 154L960 139L960 301L823 301L686 301L549 301L411 301L274 301L137 301L0 301Z" fill="#ffce35"></path><path d="M0 201L137 198L274 180L411 196L549 211L686 211L823 204L960 196L960 301L823 301L686 301L549 301L411 301L274 301L137 301L0 301Z" fill="#e7b501"></path><path d="M0 239L137 232L274 237L411 239L549 258L686 232L823 235L960 239L960 301L823 301L686 301L549 301L411 301L274 301L137 301L0 301Z" fill="#ba9203"></path></svg>