<svg id="visual" viewBox="0 0 450 900" width="450" height="900" xmlns="http://www.w3.org/2000/svg" xmlns:xlink="http://www.w3.org/1999/xlink" version="1.1"><rect x="0" y="0" width="450" height="900" fill="#ffffff"></rect><path d="M0 337L64 339L129 291L193 325L257 280L321 256L386 316L450 266L450 901L386 901L321 901L257 901L193 901L129 901L64 901L0 901Z" fill="#feda69"></path><path d="M0 420L64 421L129 392L193 401L257 393L321 447L386 457L450 400L450 901L386 901L321 901L257 901L193 901L129 901L64 901L0 901Z" fill="#ffce35"></path><path d="M0 605L64 555L129 586L193 634L257 547L321 610L386 608L450 565L450 901L386 901L321 901L257 901L193 901L129 901L64 901L0 901Z" fill="#e7b501"></path><path d="M0 773L64 762L129 703L193 762L257 785L321 757L386 761L450 739L450 901L386 901L321 901L257 901L193 901L129 901L64 901L0 901Z" fill="#ba9203"></path></svg>