<svg id="visual" viewBox="0 0 960 50" width="960" height="50" xmlns="http://www.w3.org/2000/svg" xmlns:xlink="http://www.w3.org/1999/xlink" version="1.1"><rect x="0" y="0" width="960" height="50" fill="#ffffff"></rect><path d="M0 17L22.8 15.8C45.7 14.7 91.3 12.3 137 10.7C182.7 9 228.3 8 274 8.7C319.7 9.3 365.3 11.7 411.2 13.3C457 15 503 16 548.8 15.7C594.7 15.3 640.3 13.7 686 12C731.7 10.3 777.3 8.7 823 8.5C868.7 8.3 914.3 9.7 937.2 10.3L960 11L960 0L937.2 0C914.3 0 868.7 0 823 0C777.3 0 731.7 0 686 0C640.3 0 594.7 0 548.8 0C503 0 457 0 411.2 0C365.3 0 319.7 0 274 0C228.3 0 182.7 0 137 0C91.3 0 45.7 0 22.8 0L0 0Z" fill="#373737" stroke-linecap="round" stroke-linejoin="miter"></path></svg>