<svg id="visual" viewBox="0 0 450 900" width="450" height="900" xmlns="http://www.w3.org/2000/svg" xmlns:xlink="http://www.w3.org/1999/xlink" version="1.1"><rect x="0" y="0" width="450" height="900" fill="#373737"></rect><path d="M0 303L56 303L56 272L113 272L113 240L169 240L169 287L225 287L225 233L281 233L281 251L338 251L338 304L394 304L394 236L450 236L450 344L450 901L450 901L394 901L394 901L338 901L338 901L281 901L281 901L225 901L225 901L169 901L169 901L113 901L113 901L56 901L56 901L0 901Z" fill="#ffc700"></path><path d="M0 443L56 443L56 359L113 359L113 415L169 415L169 367L225 367L225 484L281 484L281 372L338 372L338 433L394 433L394 429L450 429L450 369L450 901L450 901L394 901L394 901L338 901L338 901L281 901L281 901L225 901L225 901L169 901L169 901L113 901L113 901L56 901L56 901L0 901Z" fill="#ffd971"></path><path d="M0 591L56 591L56 639L113 639L113 587L169 587L169 595L225 595L225 643L281 643L281 543L338 543L338 640L394 640L394 525L450 525L450 546L450 901L450 901L394 901L394 901L338 901L338 901L281 901L281 901L225 901L225 901L169 901L169 901L113 901L113 901L56 901L56 901L0 901Z" fill="#ffebb8"></path><path d="M0 753L56 753L56 745L113 745L113 692L169 692L169 780L225 780L225 725L281 725L281 715L338 715L338 768L394 768L394 799L450 799L450 710L450 901L450 901L394 901L394 901L338 901L338 901L281 901L281 901L225 901L225 901L169 901L169 901L113 901L113 901L56 901L56 901L0 901Z" fill="#ffffff"></path></svg>