<svg id="visual" viewBox="0 0 960 400" width="960" height="400" xmlns="http://www.w3.org/2000/svg" xmlns:xlink="http://www.w3.org/1999/xlink" version="1.1"><rect x="0" y="0" width="960" height="400" fill="#373737"></rect><path d="M0 134L120 134L120 120L240 120L240 106L360 106L360 127L480 127L480 103L600 103L600 111L720 111L720 135L840 135L840 104L960 104L960 152L960 401L960 401L840 401L840 401L720 401L720 401L600 401L600 401L480 401L480 401L360 401L360 401L240 401L240 401L120 401L120 401L0 401Z" fill="#ffc700"></path><path d="M0 196L120 196L120 159L240 159L240 184L360 184L360 163L480 163L480 214L600 214L600 165L720 165L720 192L840 192L840 190L960 190L960 164L960 401L960 401L840 401L840 401L720 401L720 401L600 401L600 401L480 401L480 401L360 401L360 401L240 401L240 401L120 401L120 401L0 401Z" fill="#ffd971"></path><path d="M0 262L120 262L120 283L240 283L240 260L360 260L360 264L480 264L480 285L600 285L600 241L720 241L720 284L840 284L840 233L960 233L960 242L960 401L960 401L840 401L840 401L720 401L720 401L600 401L600 401L480 401L480 401L360 401L360 401L240 401L240 401L120 401L120 401L0 401Z" fill="#ffebb8"></path><path d="M0 334L120 334L120 331L240 331L240 307L360 307L360 346L480 346L480 322L600 322L600 317L720 317L720 341L840 341L840 354L960 354L960 315L960 401L960 401L840 401L840 401L720 401L720 401L600 401L600 401L480 401L480 401L360 401L360 401L240 401L240 401L120 401L120 401L0 401Z" fill="#ffffff"></path></svg>