<svg id="visual" viewBox="0 0 960 50" width="960" height="50" xmlns="http://www.w3.org/2000/svg" xmlns:xlink="http://www.w3.org/1999/xlink" version="1.1"><rect x="0" y="0" width="960" height="50" fill="#ffc700"></rect><path d="M0 24L14.5 26.3C29 28.7 58 33.3 87.2 34.5C116.3 35.7 145.7 33.3 174.8 29.8C204 26.3 233 21.7 262 22.2C291 22.7 320 28.3 349 29.5C378 30.7 407 27.3 436.2 27.5C465.3 27.7 494.7 31.3 523.8 32.5C553 33.7 582 32.3 611 32.3C640 32.3 669 33.7 698 33.7C727 33.7 756 32.3 785.2 31.8C814.3 31.3 843.7 31.7 872.8 29.3C902 27 931 22 945.5 19.5L960 17L960 0L945.5 0C931 0 902 0 872.8 0C843.7 0 814.3 0 785.2 0C756 0 727 0 698 0C669 0 640 0 611 0C582 0 553 0 523.8 0C494.7 0 465.3 0 436.2 0C407 0 378 0 349 0C320 0 291 0 262 0C233 0 204 0 174.8 0C145.7 0 116.3 0 87.2 0C58 0 29 0 14.5 0L0 0Z" fill="#ffffff" stroke-linecap="round" stroke-linejoin="miter"></path></svg>